<?xml version="1.0" encoding="UTF-8" standalone="no"?>
<svg
   xmlns:dc="http://purl.org/dc/elements/1.1/"
   xmlns:cc="http://creativecommons.org/ns#"
   xmlns:rdf="http://www.w3.org/1999/02/22-rdf-syntax-ns#"
   xmlns:svg="http://www.w3.org/2000/svg"
   xmlns="http://www.w3.org/2000/svg"
   xmlns:sodipodi="http://sodipodi.sourceforge.net/DTD/sodipodi-0.dtd"
   xmlns:inkscape="http://www.inkscape.org/namespaces/inkscape"
   enable-background="new 0 0 48 48"
   height="48px"
   id="Layer_1"
   version="1.1"
   viewBox="0 0 48 48"
   width="48px"
   xml:space="preserve"
   inkscape:version="0.48.4 r9939"
   sodipodi:docname="1461961597_15.Pencil.svg"><metadata
     id="metadata9"><rdf:RDF><cc:Work
         rdf:about=""><dc:format>image/svg+xml</dc:format><dc:type
           rdf:resource="http://purl.org/dc/dcmitype/StillImage" /><dc:title></dc:title></cc:Work></rdf:RDF></metadata><defs
     id="defs7" /><sodipodi:namedview
     pagecolor="#ffffff"
     bordercolor="#666666"
     borderopacity="1"
     objecttolerance="10"
     gridtolerance="10"
     guidetolerance="10"
     inkscape:pageopacity="0"
     inkscape:pageshadow="2"
     inkscape:window-width="1822"
     inkscape:window-height="983"
     id="namedview5"
     showgrid="false"
     inkscape:zoom="13.906433"
     inkscape:cx="24"
     inkscape:cy="24"
     inkscape:window-x="0"
     inkscape:window-y="34"
     inkscape:window-maximized="0"
     inkscape:current-layer="Layer_1" /><path
     clip-rule="evenodd"
     d="M44.929,14.391c-0.046,0.099-0.102,0.194-0.183,0.276L16.84,42.572  c-0.109,0.188-0.26,0.352-0.475,0.434l-13.852,3.88c-0.029,0.014-0.062,0.016-0.094,0.026l-0.047,0.014  c-0.008,0.003-0.017,0.001-0.024,0.004c-0.094,0.025-0.187,0.046-0.286,0.045c-0.098,0.003-0.189-0.015-0.282-0.041  c-0.021-0.006-0.04-0.002-0.061-0.009c-0.008-0.003-0.013-0.01-0.021-0.013c-0.088-0.033-0.164-0.083-0.24-0.141  c-0.039-0.028-0.08-0.053-0.113-0.086s-0.058-0.074-0.086-0.113c-0.058-0.075-0.107-0.152-0.141-0.24  c-0.004-0.008-0.01-0.013-0.013-0.021c-0.007-0.02-0.003-0.04-0.009-0.061c-0.025-0.092-0.043-0.184-0.041-0.281  c0-0.1,0.02-0.193,0.045-0.287c0.004-0.008,0.001-0.016,0.004-0.023l0.014-0.049c0.011-0.03,0.013-0.063,0.026-0.093l3.88-13.852  c0.082-0.216,0.246-0.364,0.434-0.475l27.479-27.48c0.04-0.045,0.087-0.083,0.128-0.127l0.299-0.299  c0.015-0.015,0.034-0.02,0.05-0.034C34.858,1.87,36.796,1,38.953,1C43.397,1,47,4.603,47,9.047  C47,11.108,46.205,12.969,44.929,14.391z M41.15,15.5l-3.619-3.619L13.891,35.522c0.004,0.008,0.014,0.011,0.018,0.019l2.373,4.827  L41.15,15.5z M3.559,44.473l2.785-0.779l-2.006-2.005L3.559,44.473z M4.943,39.53l3.558,3.559l6.12-1.715  c0,0-2.586-5.372-2.59-5.374l-5.374-2.59L4.943,39.53z M12.49,34.124c0.008,0.004,0.011,0.013,0.019,0.018L36.15,10.5l-3.619-3.619  L7.663,31.749L12.49,34.124z M38.922,3c-1.782,0-3.372,0.776-4.489,1.994l-0.007-0.007L33.912,5.5l8.619,8.619l0.527-0.528  l-0.006-0.006c1.209-1.116,1.979-2.701,1.979-4.476C45.031,5.735,42.296,3,38.922,3z"
     fill-rule="evenodd"
     id="path3" /><path
     style="fill:#000000"
     d="m 3.8404094,43.922034 c 0.046898,-0.139831 0.1880676,-0.655201 0.3137095,-1.145267 l 0.2284398,-0.891029 0.7985512,0.779765 c 0.4392032,0.42887 0.7985511,0.841849 0.7985511,0.917731 0,0.130778 -1.5713369,0.593037 -2.0158851,0.593037 -0.11475,0 -0.1702649,-0.114407 -0.1233665,-0.254237 z"
     id="path2986"
     inkscape:connector-curvature="0" /><path
     style="fill:#000000"
     d="M 1.4179177,46.500726 C 1.2421308,46.32494 1.0984449,46.164771 1.0986158,46.144794 1.0987867,46.124821 2.0069317,42.865285 3.1167159,38.901388 L 5.1345051,31.694302 19.743524,17.097471 C 35.573249,1.2809529 35.030868,1.7575851 37.777135,1.2499102 c 2.421602,-0.44765738 5.122133,0.521512 6.953831,2.495599 1.490756,1.6066405 2.008123,2.9761879 2.019539,5.3460162 0.008,1.6575746 -0.0546,1.9650126 -0.662504,3.2542376 -0.635747,1.348289 -1.444031,2.196449 -15.254237,16.00682 L 16.250847,42.935675 9.2944121,44.878007 c -3.8260396,1.068282 -7.091536,1.942332 -7.2566587,1.942332 -0.1651227,0 -0.4440488,-0.143825 -0.6198357,-0.319613 z M 5.4093256,44.084768 6.2360138,43.840676 5.7126332,43.428984 C 5.4247737,43.202555 5.1293009,42.778428 5.0560269,42.486482 4.9311755,41.989033 4.4208535,41.377013 4.2785502,41.554068 c -0.1049295,0.130554 -0.7395671,2.526394 -0.7395671,2.791965 0,0.252972 0.2443216,0.218843 1.8703425,-0.261265 l 0,0 z m 6.2580364,-1.762387 c 1.626002,-0.460318 2.980432,-0.858112 3.009846,-0.883987 0.02941,-0.02587 -0.516428,-1.260098 -1.212979,-2.742718 L 12.197771,36.000006 9.5786225,34.687548 C 8.1380908,33.965697 6.859045,33.408567 6.7362984,33.449483 6.6135519,33.490397 6.1263748,34.891003 5.6536828,36.561938 L 4.7942426,39.6 6.5522028,41.379661 c 0.966878,0.978814 1.8481476,1.779661 1.9583766,1.779661 0.1102289,0 1.5307816,-0.376623 3.1567826,-0.836941 z M 39.385289,13.618546 37.504363,11.737619 25.623797,23.616883 13.743231,35.496146 l 1.251225,2.511932 1.251225,2.511931 12.510267,-12.510268 12.510268,-12.510267 -1.880927,-1.880928 0,0 z M 24.439629,22.360377 36.288124,10.510584 34.402861,8.6331604 32.5176,6.7557372 20.020126,19.254449 c -6.87361,6.874292 -12.455663,12.539925 -12.4045621,12.590295 0.1393112,0.137316 4.7100851,2.365425 4.8524711,2.365425 0.0677,0 5.454922,-5.332407 11.971594,-11.849792 z M 44.728666,11.21736 C 45.21347,9.7577518 45.077862,7.578949 44.421285,6.2786911 43.362557,4.1820338 41.372195,2.9944808 38.922645,2.9979205 c -1.795977,0.00252 -3.297094,0.6139294 -4.464517,1.8184046 l -0.702893,0.7252007 4.36645,4.3784947 4.366451,4.3784945 0.94789,-1.021603 c 0.581764,-0.627007 1.081049,-1.422514 1.29264,-2.059552 l 0,0 z"
     id="path2988"
     inkscape:connector-curvature="0" /><path
     style="fill:#000000"
     d="m 4.0240931,43.616949 c 0.058158,-0.195763 0.1674566,-0.614333 0.2428852,-0.930156 l 0.1371427,-0.574225 0.6885964,0.667414 0.6885964,0.667414 -0.4601484,0.255535 C 4.6109999,44.09731 3.8954762,44.049878 4.0240931,43.616949 z"
     id="path2990"
     inkscape:connector-curvature="0" /><path
     style="fill:#000000"
     d="M 1.4177348,46.500543 C 1.0375509,46.120359 0.86369681,46.887976 3.2546296,38.390109 L 5.1401188,31.688691 19.746331,17.094666 C 35.572995,1.281206 35.030898,1.7575797 37.777135,1.2499102 c 2.421602,-0.44765738 5.122133,0.521512 6.953831,2.495599 1.490756,1.6066405 2.008123,2.9761879 2.019539,5.3460162 0.008,1.6575746 -0.0546,1.9650126 -0.662504,3.2542376 -0.63568,1.348147 -1.445483,2.198049 -15.254237,16.00959 l -14.582917,14.58586 -6.9609402,1.939564 c -3.8285172,1.066759 -7.0940136,1.939562 -7.2566585,1.939562 -0.1626449,0 -0.439626,-0.143908 -0.6155135,-0.319796 z m 2.6078613,-2.038942 c 0.271588,-0.104217 0.2760093,-0.161933 0.031163,-0.40678 -0.3888943,-0.388894 -0.5177755,-0.358664 -0.5177755,0.12145 0,0.447073 0.025758,0.462177 0.486613,0.28533 z M 5.3694915,44.08658 c 0,-0.04933 -0.091525,-0.146257 -0.2033898,-0.215394 -0.1118644,-0.06914 -0.2033898,-0.02878 -0.2033898,0.08969 0,0.118467 0.091525,0.215394 0.2033898,0.215394 0.1118644,0 0.2033898,-0.04036 0.2033898,-0.08969 z m 0.8135593,-0.317088 c 0,-0.111865 -0.1372881,-0.20339 -0.3050847,-0.20339 -0.1677966,0 -0.3050847,0.09152 -0.3050847,0.20339 0,0.111864 0.1372881,0.203389 0.3050847,0.203389 0.1677966,0 0.3050847,-0.09153 0.3050847,-0.203389 z M 4.1348573,42.791386 c -0.012765,-0.488709 -0.033013,-0.503758 -0.1890946,-0.140539 -0.2428157,0.565062 -0.2428157,0.963629 0,0.81356 0.1118644,-0.06914 0.196957,-0.371996 0.1890946,-0.673021 z M 5.1442609,42.447458 C 4.4522756,41.483886 4.1491525,41.308346 4.1491525,41.871187 c 0,0.186439 0.054383,0.284599 0.1208518,0.218132 0.066469,-0.06647 0.3962889,0.192852 0.7329342,0.57627 0.8545072,0.973231 0.9220381,0.868995 0.1413224,-0.218131 z m 6.4896371,-0.123187 c 1.644407,-0.459281 3.015054,-0.858232 3.045883,-0.886563 0.03083,-0.02833 -0.525822,-1.277131 -1.237004,-2.775117 L 12.149721,35.938983 9.4691959,34.636174 C 7.9949075,33.919627 6.7268032,33.395231 6.6511863,33.470847 6.5755694,33.546464 6.125125,34.956458 5.6501988,36.604165 L 4.7866965,39.6 6.5484297,41.379661 c 0.9689532,0.978814 1.8368618,1.779661 1.9286854,1.779661 0.091823,0 1.5123758,-0.375773 3.1567829,-0.835051 z M 39.385292,13.618549 37.504369,11.737625 25.708117,23.532561 c -6.487939,6.487217 -11.796253,11.908632 -11.796253,12.047592 0,0.138958 0.525011,1.307371 1.166691,2.596472 l 1.166691,2.34382 12.510484,-12.510486 12.510486,-12.510485 -1.880924,-1.880925 0,0 z M 24.439629,22.360377 36.288124,10.510584 34.402861,8.6331604 32.5176,6.7557372 20.020126,19.254449 c -6.87361,6.874292 -12.4495768,12.546609 -12.3910371,12.605148 0.1171588,0.117159 4.6952961,2.320772 4.8596981,2.339138 0.05629,0.0063 5.43417,-5.320973 11.950842,-11.838358 l 0,0 z M 44.441056,11.87628 c 0.407935,-0.798082 0.487758,-1.253811 0.487758,-2.7847546 0,-1.5449908 -0.07827,-1.9837289 -0.501781,-2.8128343 -1.068342,-2.0914644 -3.03704,-3.2642752 -5.499393,-3.2761475 -1.790329,-0.00863 -3.294982,0.6019737 -4.469512,1.8137815 l -0.702893,0.7252007 4.361317,4.3648584 4.361319,4.3648588 0.737713,-0.720358 c 0.405742,-0.396197 0.957205,-1.149769 1.225472,-1.674605 z"
     id="path2992"
     inkscape:connector-curvature="0" /><path
     style="fill:#000000"
     d="M 38.323257,9.7063123 34.1621,5.5414381 34.843438,4.8384758 c 2.130634,-2.1982564 5.919466,-2.1785557 8.221254,0.042748 1.170834,1.1298946 1.611897,2.1366387 1.718637,3.9228499 0.07499,1.2548684 0.01384,1.7202194 -0.327397,2.4916454 -0.381683,0.862858 -1.616463,2.562897 -1.867962,2.571801 -0.05696,0.002 -1.976076,-1.870527 -4.264713,-4.1612077 l 0,0 z"
     id="path2994"
     inkscape:connector-curvature="0" /><path
     style="fill:none;stroke:#000000;stroke-width:1px;stroke-linecap:butt;stroke-linejoin:miter;stroke-opacity:1"
     d="m 33.966102,5.0847458 c -0.0285,0.4434952 0.964328,1.0397127 1.220339,1.4237288 0.08409,0.126137 0.119298,0.2806426 0.20339,0.4067796 0.06574,0.098612 0.918337,0.9512082 1.016949,1.0169492 0.126137,0.084091 0.280642,0.1192985 0.406779,0.2033898 0.185149,0.1234326 0.429898,0.5200334 0.61017,0.6101695 0.06064,0.03032 0.142751,-0.03032 0.20339,0 0.930835,0.4654177 -0.863068,-0.084299 0.610169,0.4067797 0.605457,0.2018191 -0.417316,-0.4816008 0.61017,0.2033898 0.175505,0.1170034 0.451304,0.4513045 0.610169,0.6101695 0.0678,0.067796 0.135593,0.1355933 0.20339,0.2033903 0.0678,0.0678 0.160511,0.117633 0.20339,0.203389 0.03032,0.06064 -0.03032,0.142751 0,0.20339 0.08576,0.171514 0.321023,0.235266 0.406779,0.40678 0.08136,0.162712 -0.08136,0.447457 0,0.610169 0.04288,0.08576 0.160512,0.117633 0.20339,0.20339 0.03032,0.06064 -0.03032,0.142751 0,0.20339 0.04288,0.08576 0.160512,0.117633 0.20339,0.20339 0.03032,0.06064 -0.03032,0.142751 0,0.20339 0.05276,0.105525 0.61017,0.547042 0.61017,0.610169 0,0.0678 -0.142751,0.03032 -0.20339,0 -0.08415,-0.04208 -0.552697,-0.52396 -0.61017,-0.610169 -0.448101,-0.102426 -0.107511,-0.418412 -0.20339,-0.61017 -0.10909,-0.218182 -0.297688,-0.188598 -0.406779,-0.406779 -0.03032,-0.06064 0.03032,-0.142751 0,-0.20339 -0.04288,-0.08576 -0.160512,-0.117633 -0.20339,-0.20339 -0.03032,-0.06064 0.03032,-0.142751 0,-0.20339 -0.04288,-0.08576 -0.135593,-0.135593 -0.20339,-0.20339 -0.20339,-0.20339 -0.40678,-0.406779 -0.610169,-0.6101693 -0.0678,-0.067797 -0.150206,-0.1236138 -0.20339,-0.2033898 C 38.475885,9.5104378 38.372881,9.220339 38.237288,8.9491525"
     id="path2996"
     inkscape:connector-curvature="0" /><path
     style="fill:none;stroke:#000000;stroke-width:1px;stroke-linecap:butt;stroke-linejoin:miter;stroke-opacity:1"
     d="m 41.288136,12.610169 c 0.271186,0.271187 0.484697,0.616243 0.813559,0.81356 0.08221,0.04933 0.135593,-0.135593 0.20339,-0.20339 0.0678,-0.0678 0.135593,-0.135593 0.20339,-0.20339 0.674559,-0.674559 -0.09588,0.191758 0.203389,-0.40678 0.08576,-0.171513 0.300412,-0.247227 0.40678,-0.406779 0.08409,-0.126137 0.119299,-0.280643 0.20339,-0.40678 0.05318,-0.07978 0.160511,-0.117633 0.20339,-0.20339 0.03032,-0.06064 0,-0.135593 0,-0.203389 0,-0.0678 0,-0.135594 0,-0.20339 0,-0.40678 0,-0.81356 0,-1.2203393 0,-0.4745763 0,-0.9491525 0,-1.4237288 0,-0.091598 0.03095,-0.5482711 0,-0.6101695 -0.04288,-0.085757 -0.160512,-0.1176332 -0.20339,-0.2033898 -0.03032,-0.060639 0.03032,-0.1427507 0,-0.2033899 -0.04288,-0.085757 -0.160512,-0.1176331 -0.20339,-0.2033898 -0.03032,-0.060639 0.03032,-0.1427507 0,-0.2033898 -0.04288,-0.085757 -0.160511,-0.1176332 -0.20339,-0.2033899 -0.03032,-0.060639 0.03032,-0.1427507 0,-0.2033898 C 42.872376,6.6261077 42.779661,6.5762712 42.711864,6.5084746 42.644068,6.440678 42.576271,6.3728814 42.508475,6.3050847 42.237288,6.0338983 41.966102,5.7627119 41.694915,5.4915254 41.575293,5.3719029 40.975541,4.7250589 40.881356,4.6779661 c -0.06064,-0.03032 -0.142751,0.03032 -0.20339,0 -0.327273,-0.1636364 -0.07951,-0.2431433 -0.40678,-0.4067797 -0.121278,-0.060639 -0.285501,0.060639 -0.406779,0 -0.08576,-0.042878 -0.117633,-0.1605114 -0.20339,-0.2033898 -0.06064,-0.03032 -0.139072,0.021439 -0.20339,0 -0.143818,-0.047939 -0.262961,-0.1554504 -0.40678,-0.2033898 -0.06432,-0.021439 -0.14275,0.03032 -0.203389,0 -0.08576,-0.042878 -0.117634,-0.1605115 -0.20339,-0.2033899 -0.05348,-0.02674 -0.707203,0 -0.81356,0 -0.610169,0 -1.220339,0 -1.830508,0 -0.144163,0 -1.167752,-0.026293 -1.220339,0 -0.08576,0.042878 -0.135593,0.1355933 -0.20339,0.2033899 -0.0678,0.067797 -0.160511,0.1176331 -0.20339,0.2033898 -0.04343,0.086864 0,0.9365466 0,1.0169492 0,0.067797 0.06064,0.1730702 0,0.2033898 -0.335105,0.1675528 -0.429378,-0.022599 -0.610169,-0.2033898"
     id="path2998"
     inkscape:connector-curvature="0" /><path
     style="fill:none;stroke:#000000;stroke-width:1px;stroke-linecap:butt;stroke-linejoin:miter;stroke-opacity:1"
     d="m 41.491525,7.9322034 2.440678,0.2033898"
     id="path3000"
     inkscape:connector-curvature="0" /><path
     style="fill:none;stroke:#000000;stroke-width:1px;stroke-linecap:butt;stroke-linejoin:miter;stroke-opacity:1"
     d="m 5.1774589,42.822542 c -0.02397,-0.02397 -0.047939,-0.04794 -0.071909,-0.07191 -0.02397,-0.02397 -0.056749,-0.04159 -0.071909,-0.07191 -0.01072,-0.02144 0.023048,-0.06531 0,-0.07191 -0.1629702,-0.04656 -0.4016692,0.06368 -0.5033642,-0.07191 -0.1016951,-0.135594 0.102229,-0.336607 0.071909,-0.503365 -0.00798,-0.04391 -0.4178931,-0.532533 -0.5033641,-0.575273 -0.021439,-0.01072 0,0.04794 0,0.07191 0,0.02397 -0.01072,0.05047 0,0.07191 0.01516,0.03032 0.056749,0.04159 0.071909,0.07191 0.028764,0.05753 -0.028764,0.158197 0,0.215727 0.03865,0.0773 0.1051684,0.138428 0.1438184,0.215728 0.010719,0.02144 -0.01072,0.05047 0,0.07191 0.2560066,0.512013 0.2124396,0.202576 0.3595458,0.791001 0.011627,0.04651 0,0.09588 0,0.143818 0,0.119848 0,0.239697 0,0.359546 0,0.04794 0,-0.09588 0,-0.143819 0,-0.143818 0.025727,-0.289956 0,-0.431455 -0.023091,-0.126998 -0.1225974,-0.232221 -0.1438184,-0.359545 -0.027584,-0.165506 0,-0.335577 0,-0.503365 0,-0.143818 0,-0.287636 0,-0.431455 0,-0.02397 0,0.04794 0,0.07191 0,0.09588 0,0.191756 0,0.287636 0,0.311607 0,0.623213 0,0.934819 0,0.119849 -0.023504,-0.242024 0,-0.359545 0.025315,-0.126575 0.086091,-0.244093 0.1438184,-0.359546 0.109117,-0.218234 0.057584,-0.01432 0.071909,0 0.087241,0.08724 0.1608775,0.1097 0.2157275,0 0.04216,-0.08432 -0.042674,-0.08535 -0.071909,-0.143819 -0.022976,-0.04595 0.019293,-0.229756 0,-0.287636 -0.016949,-0.05085 -0.047939,-0.09588 -0.071909,-0.143819 -0.023969,-0.04794 -0.042178,-0.09922 -0.071909,-0.143818 -0.018803,-0.02821 -0.038011,-0.07191 -0.071909,-0.07191 -0.088858,0 -0.071909,0.100848 -0.071909,0.143818 0,0.143819 0,0.287637 0,0.431455 0,0.09588 0.015762,0.193067 0,0.287637 -0.016247,0.09748 -0.047939,0.191757 -0.071909,0.287637 -0.3568205,0.116493 0.1330202,0.39194 0.071909,0.575273 -0.033898,0.101695 -0.10992,0.185942 -0.1438183,0.287636 -0.031253,0.09376 -0.040656,0.193879 -0.071909,0.287637 -0.016949,0.05085 -0.063098,0.09095 -0.071909,0.143818 -0.015762,0.09457 0.013559,0.192722 0,0.287637 -0.01072,0.07504 -0.04794,0.143818 -0.071909,0.215728 -0.02397,0.07191 -0.04794,0.143818 -0.071909,0.215727 -0.02397,0.07191 -0.057044,0.141401 -0.071909,0.215728 -0.014103,0.07051 0.02274,0.147508 0,0.215727 -0.016949,0.05085 -0.05496,0.09297 -0.071909,0.143818 -0.014325,0.04298 0.037208,0.143819 -0.071909,0.143819 -0.1114346,0 -0.071909,-0.250649 -0.071909,-0.287637 0,-0.143818 0,-0.287637 0,-0.431455 0,-0.04794 -0.011627,-0.09731 0,-0.143818 0.025999,-0.103995 0.10992,-0.185942 0.1438183,-0.287637 0.02009,-0.06027 -0.023828,-0.239981 0,-0.287637 0.1636755,-0.163675 0.019005,0.01489 0.071909,-0.143818 0.016949,-0.05085 0.05891,-0.09182 0.071909,-0.143818 0.011627,-0.04651 -0.01516,-0.09834 0,-0.143819 0.088858,-0.266574 0.071909,0.08765 0.071909,-0.143818 0,-0.02397 -0.01072,-0.05047 0,-0.07191 0.01516,-0.03032 0.095879,-0.09588 0.071909,-0.07191 -0.071909,0.07191 -0.1521992,0.136317 -0.2157275,0.215727 -0.033482,0.04185 -0.04794,0.09588 -0.071909,0.143819 -0.047939,0.09588 -0.084357,0.198444 -0.1438183,0.287636 -0.018803,0.0282 -0.053106,0.0437 -0.071909,0.07191 -0.1102273,0.165341 -0.033591,0.194205 -0.1438183,0.359546 -0.018803,0.0282 -0.04794,0.09588 -0.071909,0.07191 -0.033898,-0.0339 0,-0.09588 0,-0.143818 0,-0.119848 -0.023504,-0.242024 0,-0.359546 0.010511,-0.05256 0.052003,-0.09405 0.071909,-0.143818 0.028151,-0.07038 0.043758,-0.14535 0.071909,-0.215728 0.019906,-0.04976 0.052003,-0.09405 0.071909,-0.143818 0.1783188,-0.06786 0.040657,-0.193878 0.071909,-0.287636 0.016949,-0.05085 0.05496,-0.09297 0.071909,-0.143819 0.01516,-0.04548 -0.021439,-0.10094 0,-0.143818 0.01516,-0.03032 0.047939,-0.09588 0.071909,-0.07191 0.033898,0.0339 0,0.09588 0,0.143818 0,0.07191 0,0.143818 0,0.215728 0,0.07191 0,0.143818 0,0.215727 0,0.429529 0.039888,0.0028 -0.1438183,0.431455 -0.166641,0.388829 -0.015672,0.165938 -0.071909,0.503364 -0.012461,0.07477 -0.043758,0.14535 -0.071909,0.215728 -0.019906,0.04976 -0.05496,0.09297 -0.071909,0.143818 -0.01516,0.04548 0.021439,0.10094 0,0.143818 -0.01516,0.03032 -0.071909,0.03801 -0.071909,0.07191 0,0.0536 0.027313,0.114088 0.071909,0.143819 0.1075775,0.07172 0.4216741,-0.138928 0.431455,-0.143819 0.095879,-0.04794 0.1917577,-0.09588 0.2876366,-0.143818 0.1438183,-0.02397 0.2974417,-0.01448 0.431455,-0.07191 0.049264,-0.02111 0.042178,-0.09922 0.071909,-0.143818 0.018803,-0.0282 0.04159,-0.05675 0.071909,-0.07191 0.042428,-0.02121 0.1662661,0.01649 0.2157275,0 0.1016949,-0.0339 0.1859418,-0.10992 0.2876367,-0.143818 0.049461,-0.01649 0.1732996,0.02121 0.2157275,0 0.03032,-0.01516 0.04159,-0.05675 0.071909,-0.07191 0.021439,-0.01072 0.05047,0.01072 0.071909,0 0.03032,-0.01516 0.04159,-0.05675 0.071909,-0.07191 0.021439,-0.01072 0.05047,0.01072 0.071909,0 0.0333,-0.01665 0.2453437,-0.245344 0.2876367,-0.287637 0.02397,-0.02397 0.047939,-0.04794 0.071909,-0.07191 0.02397,-0.02397 0.056749,-0.04159 0.071909,-0.07191 0.091417,-0.182833 -0.3939626,-0.156316 -0.431455,-0.143819 -0.081989,0.02733 -0.1416194,0.09935 -0.2157275,0.143819 -0.2240469,0.134428 -0.0945,0.0037 -0.3595458,0.215727 -0.05294,0.04235 -0.085683,0.108938 -0.1438183,0.143819 -0.064997,0.039 -0.14535,0.04376 -0.2157275,0.07191 -0.049764,0.01991 -0.092971,0.05496 -0.1438183,0.07191 -0.02274,0.0076 -0.05047,-0.01072 -0.071909,0 -0.3291,0.16455 0.3051405,-0.0298 -0.2157275,0.143818 -0.042877,0.01429 -0.3617845,0 -0.431455,0 -0.02397,0 -0.05047,-0.01072 -0.071909,0 -0.03032,0.01516 -0.04159,0.05675 -0.071909,0.07191 -0.021439,0.01072 -0.04917,-0.0076 -0.071909,0 -0.050847,0.01695 -0.095879,0.04794 -0.1438183,0.07191 -0.047939,0.02397 -0.099222,0.04218 -0.1438183,0.07191 -0.028205,0.0188 -0.04159,0.05675 -0.071909,0.07191 -0.021439,0.01072 -0.047939,0 -0.071909,0 -0.02397,0 -0.047939,0 -0.071909,0 -0.032385,0 -0.1938431,-0.01094 -0.2157275,0 -0.03032,0.01516 -0.04794,0.04794 -0.071909,0.07191"
     id="path3002"
     inkscape:connector-curvature="0" /><path
     style="fill:none;stroke:#000000;stroke-width:1px;stroke-linecap:butt;stroke-linejoin:miter;stroke-opacity:1"
     d="M 34.875945,4.638774 C 35.067702,4.4470162 35.25946,4.2552584 35.451218,4.0635006"
     id="path3004"
     inkscape:connector-curvature="0" /><path
     style="fill:none;stroke:#000000;stroke-width:1px;stroke-linecap:butt;stroke-linejoin:miter;stroke-opacity:1"
     d="m 37.968039,3.2724998 c 0.751911,0 -0.02769,0.042878 0.431455,-0.071909 0.04651,-0.011627 0.09681,0.0094 0.143818,0 0.07433,-0.014865 0.141401,-0.057044 0.215728,-0.071909 0.09402,-0.018803 0.196677,0.03032 0.287636,0 0.03216,-0.01072 0.04159,-0.056749 0.07191,-0.071909 0.0038,-0.00188 0.211966,-0.00188 0.215728,0 0.08629,0.043146 0.129436,0.172582 0.215727,0.2157275 0.02144,0.01072 0.05047,-0.010719 0.07191,0 0.03032,0.01516 0.04159,0.056749 0.07191,0.071909 0.02144,0.01072 0.04917,-0.00758 0.07191,0 0.287636,0.095879 -0.01454,0.069001 0.359546,0.1438183 0.04701,0.0094 0.09636,-0.00678 0.143818,0 0.657874,0.093982 0.06619,0.081773 0.934819,0.1438184 1.471907,0.1051362 -0.355137,-0.1071291 0.719092,0.071909 0.04729,0.00788 0.09834,-0.01516 0.143818,0 0.03216,0.01072 0.04159,0.056749 0.07191,0.071909 0.02144,0.01072 0.05047,-0.01072 0.07191,0 0.03032,0.01516 0.04794,0.047939 0.07191,0.071909 0.02397,0.02397 0.04794,0.047939 0.07191,0.071909 0.02397,0.02397 0.04794,0.04794 0.07191,0.071909 0.02397,0.02397 0.05675,0.04159 0.07191,0.071909 0.01072,0.021439 -0.01072,0.05047 0,0.071909 0.16455,0.3291 -0.0298,-0.3051405 0.143818,0.2157275 0.0076,0.02274 0,0.047939 0,0.071909 0.02397,0.071909 0.04376,0.1453499 0.07191,0.2157275 0.06815,0.1703812 0.07711,0.1490222 0.215727,0.2876366 0.02397,0.02397 0.06119,0.03975 0.07191,0.071909 0.01516,0.045479 -0.01516,0.098339 0,0.1438183 0.01072,0.032159 0.05311,0.043704 0.07191,0.071909 0.158428,0.036213 0.03801,0.1479309 0.07191,0.2157275 0.01516,0.03032 0.05675,0.04159 0.07191,0.071909 0.02144,0.042878 -0.02144,0.10094 0,0.1438184 0.01516,0.030319 0.05675,0.04159 0.07191,0.071909 0.01072,0.021439 -0.01072,0.05047 0,0.071909 0.01516,0.03032 0.05311,0.043704 0.07191,0.071909 0.02973,0.044596 0.04218,0.099222 0.07191,0.1438183 0.0188,0.028205 0.05311,0.043704 0.07191,0.071909 0.02973,0.044596 0.04218,0.099222 0.07191,0.1438184 0.0188,0.028205 0.04794,0.047939 0.07191,0.071909 0.07191,0.071909 0.143818,0.1438184 0.215727,0.2157275 0.02397,0.02397 0.05311,0.043704 0.07191,0.071909 0.02973,0.044596 0.04218,0.099222 0.07191,0.1438183 0.03761,0.05641 0.106211,0.087408 0.143818,0.1438184 0.05946,0.089192 0.08436,0.1984443 0.143818,0.2876366 0.0188,0.028205 0.05675,0.04159 0.07191,0.071909 0.01072,0.021439 -0.01072,0.05047 0,0.071909 0.01516,0.03032 0.05675,0.04159 0.07191,0.071909 0.01072,0.021439 -0.01072,0.05047 0,0.071909 0.01516,0.03032 0.05675,0.04159 0.07191,0.071909 0.01072,0.021439 -0.01072,0.05047 0,0.071909 0.01516,0.03032 0.05675,0.04159 0.07191,0.071909 0.02876,0.057527 -0.02876,0.1582001 0,0.2157275 0.01516,0.03032 0.05675,0.041589 0.07191,0.071909 0.01072,0.021439 -0.0076,0.049169 0,0.071909 0.01695,0.050847 0.05496,0.092971 0.07191,0.1438183 0.01509,0.04526 0,0.2947295 0,0.3595458 0,0.2876367 0,0.5752733 0,0.86291 0,0.4074853 0,0.8149701 0,1.2224561 0,0.119848 0,0.239697 0,0.359545 0,0.02397 0,0.04794 0,0.07191 0,0.02397 0.01072,0.05047 0,0.07191 -0.01516,0.03032 -0.04794,0.04794 -0.07191,0.07191 0,0.04794 0.01516,0.09834 0,0.143818 -0.01072,0.03216 -0.05311,0.0437 -0.07191,0.07191 -0.02973,0.0446 -0.04218,0.09922 -0.07191,0.143819 -0.0188,0.0282 -0.05675,0.04159 -0.07191,0.07191 -0.01072,0.02144 0.01072,0.05047 0,0.07191 -0.01516,0.03032 -0.05311,0.0437 -0.07191,0.07191 -0.02973,0.0446 -0.04218,0.09922 -0.07191,0.143819 -0.0188,0.0282 -0.05311,0.0437 -0.07191,0.07191 -0.05946,0.08919 -0.09588,0.191757 -0.143818,0.287636 -0.04794,0.09588 -0.08436,0.198445 -0.143819,0.287637 -0.0188,0.02821 -0.0531,0.0437 -0.07191,0.07191 -0.02973,0.0446 -0.04794,0.09588 -0.07191,0.143819 -0.02397,0.04794 -0.05496,0.09297 -0.07191,0.143818 -0.0076,0.02274 0.01072,0.05047 0,0.07191 -0.03032,0.06064 -0.113499,0.08318 -0.143818,0.143818 -0.01072,0.02144 0.01072,0.05047 0,0.07191 -0.03032,0.06064 -0.106212,0.08741 -0.143819,0.143818 -0.02973,0.0446 -0.04218,0.09922 -0.07191,0.143818 -0.0188,0.0282 -0.05311,0.0437 -0.07191,0.07191 -0.08263,0.123943 -0.07191,0.108697 -0.07191,0.215728 0,0.02397 0.01072,0.05047 0,0.07191 -0.01516,0.03032 -0.04794,0.04794 -0.07191,0.07191 -0.104398,0.104398 -0.07785,0.07191 -0.215728,0.07191"
     id="path3006"
     inkscape:connector-curvature="0" /><path
     style="fill:none;stroke:#000000;stroke-width:1px;stroke-linecap:butt;stroke-linejoin:miter;stroke-opacity:1"
     d="m 44.152227,5.5735931 c 0.04794,0.095879 0.08867,0.195717 0.143818,0.2876367 0.03488,0.058135 0.122379,0.079501 0.143819,0.1438183 0,0.327351 -0.0339,0.00411 0.07191,0.2157275 0.02876,0.057527 -0.02876,0.1582001 0,0.2157275 0.01516,0.03032 0.05675,0.04159 0.07191,0.071909 0.0226,0.045196 -0.0226,0.2424402 0,0.2876367 0.01516,0.03032 0.07191,0.038011 0.07191,0.071909 0,0.02397 -0.04794,0 -0.07191,0 -0.02397,0 -0.05047,0.010719 -0.07191,0 -0.03032,-0.01516 -0.04794,-0.04794 -0.07191,-0.071909 -0.02397,-0.02397 -0.05675,-0.04159 -0.07191,-0.071909 -0.01072,-0.021439 0.0076,-0.04917 0,-0.071909 -0.01695,-0.050848 -0.05891,-0.091821 -0.07191,-0.1438184 -0.01163,-0.046508 0.01516,-0.098339 0,-0.1438183 -0.01072,-0.032159 -0.05675,-0.04159 -0.07191,-0.071909 -0.01072,-0.021439 0.0058,-0.048655 0,-0.071909 -0.01838,-0.073536 -0.05704,-0.1414006 -0.07191,-0.2157275 -0.02397,-0.1198486 0.04794,-0.3355761 0,-0.431455 -0.174036,-0.3480721 -0.305514,-0.2876367 -0.575273,-0.2876367 -0.02397,0 -0.04794,0 -0.07191,0 -0.02397,0 -0.05047,0.01072 -0.07191,0 -0.03032,-0.01516 -0.04159,-0.056749 -0.07191,-0.071909 -0.02144,-0.01072 -0.07191,0.02397 -0.07191,0 0,-0.02397 0.04794,0 0.07191,0"
     id="path3008"
     inkscape:connector-curvature="0" /><path
     style="fill:none;stroke:#000000;stroke-width:1px;stroke-linecap:butt;stroke-linejoin:miter;stroke-opacity:1"
     d="m 42.642134,13.699329 c -0.36816,-0.06466 -0.09605,0.264011 -0.143818,0.359545 -0.01516,0.03032 -0.05675,0.04159 -0.07191,0.07191 -0.02876,0.05753 0.02876,0.1582 0,0.215727 -0.01516,0.03032 -0.04794,0.09588 -0.07191,0.07191 -0.02397,-0.02397 0.04794,-0.04794 0.07191,-0.07191"
     id="path3010"
     inkscape:connector-curvature="0" /><path
     style="fill:none;stroke:#000000;stroke-width:1px;stroke-linecap:butt;stroke-linejoin:miter;stroke-opacity:1"
     d="m 34.660217,4.7825923 c 0.119849,-0.02397 0.243596,-0.033259 0.359546,-0.071909 0.03216,-0.01072 0.04794,-0.047939 0.07191,-0.071909 0.04229,-0.042293 0.254337,-0.2709869 0.287637,-0.2876367 0.02144,-0.01072 0.05047,0.01072 0.07191,0 0.03032,-0.01516 0.04159,-0.056749 0.07191,-0.071909 0.02144,-0.01072 0.07191,-0.02397 0.07191,0 0,0.02397 -0.04794,0 -0.07191,0"
     id="path3012"
     inkscape:connector-curvature="0" /></svg>